<?xml version="1.0" encoding="utf-8"?>
<!-- Svg Vector Icons : http://www.onlinewebfonts.com/icon -->
<!DOCTYPE svg PUBLIC "-//W3C//DTD SVG 1.1//EN" "http://www.w3.org/Graphics/SVG/1.1/DTD/svg11.dtd">
<svg version="1.1" xmlns="http://www.w3.org/2000/svg" xmlns:xlink="http://www.w3.org/1999/xlink" x="0px" y="0px" viewBox="0 0 1000 1000" enable-background="new 0 0 1000 1000" xml:space="preserve">
<metadata> Svg Vector Icons : http://www.onlinewebfonts.com/icon </metadata>
<g><g transform="translate(0.000000,511.000000) scale(0.100000,-0.100000)"><path d="M5948.9,4087.9c-95.5-41.8-334.2-198.9-487.4-322.3l-137.3-109.4l-53.7,51.7c-51.7,49.7-59.7,51.7-153.2,31.8c-280.5-63.7-704.2-290.4-1072.3-576.9c-65.6-49.7-208.9-143.2-318.3-208.9c-561-328.3-1040.4-702.2-1344.8-1052.4c-185-210.9-322.3-463.5-415.8-767.9l-61.7-195l-103.4,39.8c-423.7,161.1-1066.3-61.7-1396.5-485.4C-63-103.7,8.7-901.4,613.4-1820.5c246.7-374,499.3-576.9,817.6-658.5c149.2-37.8,423.7-45.8,823.6-19.9c419.8,25.9,473.5,2,658.5-278.5c443.6-674.4,1191.6-1082.2,2047.1-1116.1c397.9-15.9,728.1,39.8,1078.2,181c487.4,198.9,843.5,537.1,1143.9,1082.2c47.8,87.5,169.1,143.2,318.3,147.2c69.6,2,296.4-4,503.3-13.9c326.3-13.9,399.9-11.9,533.1,17.9c344.2,77.6,592.9,268.6,849.5,658.5c604.8,919.1,676.4,1716.8,208.9,2313.7c-332.2,423.7-972.8,646.5-1396.6,485.4l-103.4-39.8l-61.7,195c-89.5,292.5-232.8,559-401.9,750c-328.2,372-895.2,811.7-1436.3,1114.1c-238.7,133.3-262.6,153.2-312.3,248.7c-83.6,165.1-35.8,417.8,129.3,676.4c49.7,77.6,91.5,153.2,91.5,169.1C6104.1,4125.7,6032.5,4123.7,5948.9,4087.9z M4166.4,1748.4c262.6-81.6,533.1-252.6,676.4-425.7l69.6-87.5l173.1,135.3c244.7,193,421.7,274.5,797.7,370c487.4,125.3,821.6,23.9,1205.6-358.1c270.5-270.6,387.9-535.1,387.9-875.3c0-298.4-109.4-590.9-324.3-873.3c-55.7-75.6-111.4-149.2-123.3-163.1c-11.9-17.9,9.9-55.7,81.6-131.3c204.9-216.8,276.5-411.8,262.6-710.2c-7.9-153.2-23.8-222.8-73.6-346.2c-189-469.5-429.7-809.7-762-1078.3c-417.8-334.2-895.2-515.3-1428.3-541.1c-982.8-45.8-1866,467.5-2305.7,1340.8c-141.3,282.5-185,423.7-196.9,624.7c-13.9,298.4,57.7,493.4,262.6,710.2c71.6,75.6,93.5,113.4,81.6,131.3c-11.9,13.9-67.6,87.5-123.3,163.1c-127.3,167.1-250.6,411.8-294.4,580.9c-37.8,151.2-41.8,431.7-10,571c45.8,187,169.1,411.8,310.3,565c163.1,175.1,324.3,288.5,535.1,374c151.2,61.7,173.1,65.6,409.8,65.6C3979.5,1790.2,4059,1782.3,4166.4,1748.4z M1639.9,336c47.7-11.9,91.5-29.8,97.5-37.8c13.9-21.9-69.6-298.4-121.4-401.9c-49.7-99.5-57.7-103.4-236.7-123.3c-53.7-8-111.4-23.9-125.3-39.8c-21.9-21.9-15.9-33.8,35.8-79.6c33.8-27.9,127.3-89.5,204.9-135.3c246.7-143.2,348.1-266.6,449.6-545.1c107.4-294.4,133.3-674.4,53.7-795.8c-53.7-81.6-155.2-113.4-272.5-89.5c-437.7,93.5-734.1,555-811.7,1261.2c-31.8,286.5,8,517.2,123.3,714.2c73.6,125.3,206.9,270.6,258.6,280.5C1385.3,361.9,1552.4,357.9,1639.9,336z M8823.6,250.4C9048.4,1.8,9126-260.8,9086.2-642.8c-71.7-704.2-372-1173.7-811.7-1269.2c-117.4-23.9-218.8,7.9-272.5,89.5c-79.6,121.3-53.7,501.3,53.7,795.8c101.5,278.5,202.9,401.9,449.6,545.1c77.6,45.8,171.1,107.4,204.9,135.3c51.7,45.8,57.7,57.7,35.8,79.6c-13.9,15.9-71.6,31.8-125.3,39.8c-179,19.9-187,23.9-236.7,123.3c-57.7,115.4-135.3,386-115.4,403.9c33.8,33.8,165.1,55.7,310.4,51.7l155.1-4L8823.6,250.4z"/><path d="M4065,529c-200.9-87.5-248.7-354.1-91.5-511.3c222.8-224.8,588.9-23.9,531.2,290.5C4468.8,495.1,4244,608.5,4065,529z"/><path d="M5676.4,529c-200.9-87.5-248.7-354.1-91.5-511.3c129.3-129.3,312.3-129.3,441.6,0C6273.2,264.4,5996.7,668.2,5676.4,529z"/><path d="M3712.9-1746.9c119.4-165.1,376-316.3,676.4-395.9c175.1-47.7,228.8-51.7,580.9-53.7c561,0,933,77.6,1199.6,254.6c93.5,61.7,226.8,204.9,206.9,222.8c-2,2-83.5-13.9-179.1-33.8c-385.9-77.6-688.3-105.4-1167.8-107.4c-294.4,0-533.1,9.9-646.5,25.9c-165.1,25.9-553,103.4-664.4,135.3l-49.7,13.9L3712.9-1746.9z"/></g></g>
</svg>