<?xml version="1.0" encoding="utf-8"?>
<!-- Svg Vector Icons : http://www.onlinewebfonts.com/icon -->
<!DOCTYPE svg PUBLIC "-//W3C//DTD SVG 1.1//EN" "http://www.w3.org/Graphics/SVG/1.1/DTD/svg11.dtd">
<svg version="1.1" xmlns="http://www.w3.org/2000/svg" xmlns:xlink="http://www.w3.org/1999/xlink" x="0px" y="0px" viewBox="0 0 1000 1000" enable-background="new 0 0 1000 1000" xml:space="preserve">
<metadata> Svg Vector Icons : http://www.onlinewebfonts.com/icon </metadata>
<g><path d="M776,565.2c-47.8-4.1-32.3,46.6-82.7,41.3c-92.2-9.5-128.6-63.6-251.4-66.8c-65.2-1.7-125.3,42.1-146.3,38.2c-29.7-5.5-87.5-28.6-84.3-103.4c3.2-74.7,47.7-121,113-143.3c65.2-22.2,198.8-76.3,198.8-186C523.1,35.5,442,10,419.7,10c-22.2,0-24.5,21.2,1.6,30.2c27,9.4,65.2,50.9,65.2,92.2c0,41.4-4.7,109.8-160.6,152.8C170,328.2,146.6,418.9,146.6,477.7c0,58.8,32.9,152.7,131.5,157.5c17.5-1.6,21.4,14.5,17.5,27c-4.3,13.6-6.4,74.9,4.7,103.6c11.2,28.6,0,28.6-22.2,39.7c-22.3,11.2-109.7,55.7-109.7,55.7s-19.1,17.5-4.8,36.6c14.3,19.1,63.6,97,105,76.3c19.1-11.1-17.5-42.9-52.5-68.4c-8-8-15.9-19.1,12.7-22.3c28.6-3.2,155.9-20.6,157.5-114.5c0.5-18,3.2-14.3,19.1-6.4c15.9,8,66.8,22.3,60.4,47.7c-6.4,25.4-7.9,84.3-7.9,106.6c-11.1,6.4-19.1,36.6,28.6,50.9c47.7,14.3,109.8,27.6,108.2,9.8c-1.6-17.7-60.5-25.7-90.7-40c-17.5-7.9-12.7-19.1,3.2-50.9c15.9-31.8,49.3-111.3,19.1-133.6c-12.7-6.4-3.2-17.5,22.3-12.7c25.5,4.7,35,6.3,22.3,25.4c-12.7,19.1-20.7,44.5-9.6,82.7c11.2,38.1,33.4,112.9,33.4,112.9s1.6,20.8,23.8,24.8c22.3,3.9,66.8,10.2,65.3-13.6c-1.6-23.9-36.6-17.5-49.3-15.9c-12.8,1.6-20.7-17.5-17.5-46.1c3.2-28.6,3.2-112.9,23.9-108.2c20.7,4.8,1.6,39.8,97,133.6c30.3,36.6,52.5,36.5,82.7,35c30.2-1.6,39.8-22.3-17.5-31.8c-33.4-3.2-28.6-1.6-44.6-36.6c-15.9-35-47.7-62-47.7-84.3c0-22.3,28.6-52.6,27-103.5c0-20.7,14.3-22.2,30.3-11.1c15.9,11.1,59.4,4.7,76.6-19.2c17.2-23.9,6.1-39.8-9.8-63.7C823.8,597,837.6,570.5,776,565.2z"/><g></g><g></g><g></g><g></g><g></g><g></g><g></g><g></g><g></g><g></g><g></g><g></g><g></g><g></g><g></g></g>
</svg>